<?xml version="1.0" encoding="UTF-8"?>
<svg xmlns="http://www.w3.org/2000/svg" viewBox="0 0 718.38 874.79">
  <defs>
    <style>
      .cls-1 {
        fill: none;
      }

      .cls-1, .cls-2, .cls-3 {
        stroke-miterlimit: 10;
      }

      .cls-1, .cls-3 {
        stroke: #eaca0c;
        stroke-width: 3px;
      }

      .cls-2 {
        stroke: #030202;
        stroke-width: 2px;
      }

      .cls-2, .cls-3 {
        fill: #eaca0c;
      }
    </style>
  </defs>
  <g id="Layer_1" data-name="Layer 1">
    <path class="cls-3" d="M575.6,406.02c-2.28,1.02-4.75,2.08-7.43,3.17,0,0-24.44,3.18-30.09,13.34s-1.13,24.85-1.13,24.85c0,0,14.54-11.77,18.57-18.17s12.64-20.02,12.64-20.02"/>
    <path class="cls-1" d="M159.16,345.17c-2.82-5.65-18.07-10.16-18.07,12.99s25.79,20.26,25.79,20.26h365.38s113-3.61,43.33,27.6"/>
    <line class="cls-1" x1="504.2" y1="365.5" x2="496.29" y2="390.91"/>
    <line class="cls-1" x1="516.62" y1="365.5" x2="508.15" y2="390.91"/>
    <path class="cls-1" d="M532.05,378.32H166.67s-25.79-2.89-25.79,20.26,15.25,18.64,18.07,12.99"/>
    <path class="cls-1" d="M141.09,390.91s-15.25,1.13-15.81-12.71,15.81-12.71,15.81-12.71c0,0-15.84-3.39-15.83-18.07,0,0,2.79-13.14,20.6-4.87"/>
    <path class="cls-1" d="M141.09,365.38s-15.25-1.13-15.81,12.71,15.81,12.71,15.81,12.71c0,0-15.84,3.39-15.83,18.07,0,0,2.79,13.14,20.6,4.87"/>
    <path class="cls-1" d="M125.27,403.34s-18.62,2.82-19.19-12.42,19.2-12.71,19.2-12.71"/>
    <path class="cls-1" d="M125.27,378.04s-18.62,2.82-19.19-12.42,19.2-12.71,19.2-12.71"/>
    <path class="cls-1" d="M106.05,388.45s-18.62,2.82-19.19-12.42,19.2-12.71,19.2-12.71"/>
  </g>
  <g id="Layer_3" data-name="Layer 3">
    <path class="cls-2" d="M558.41,416.13s-10.26,2.28-17.32,19.96"/>
  </g>
</svg>